<mxfile host="app.diagrams.net" agent="Mozilla/5.0 (Windows NT 10.0; Win64; x64) AppleWebKit/537.36 (KHTML, like Gecko) Chrome/135.0.0.0 Safari/537.36" version="26.2.14" pages="2">
  <diagram id="C5RBs43oDa-KdzZeNtuy" name="Page-1">
    <mxGraphModel dx="3143" dy="1364" grid="1" gridSize="10" guides="1" tooltips="1" connect="1" arrows="1" fold="1" page="1" pageScale="1" pageWidth="827" pageHeight="1169" background="#ffffff" math="0" shadow="0">
      <root>
        <mxCell id="WIyWlLk6GJQsqaUBKTNV-0" />
        <mxCell id="WIyWlLk6GJQsqaUBKTNV-1" parent="WIyWlLk6GJQsqaUBKTNV-0" />
        <mxCell id="E-XEG9pMoa77_9gsvEgl-0" style="edgeStyle=orthogonalEdgeStyle;rounded=0;orthogonalLoop=1;jettySize=auto;html=1;exitX=0;exitY=0.5;exitDx=0;exitDy=0;entryX=0.5;entryY=0;entryDx=0;entryDy=0;" edge="1" parent="WIyWlLk6GJQsqaUBKTNV-1" source="E-XEG9pMoa77_9gsvEgl-2" target="E-XEG9pMoa77_9gsvEgl-9">
          <mxGeometry relative="1" as="geometry" />
        </mxCell>
        <mxCell id="WES9_ApV9j60BKVwQrfG-8" style="edgeStyle=orthogonalEdgeStyle;shape=connector;rounded=0;orthogonalLoop=1;jettySize=auto;html=1;exitX=0.25;exitY=1;exitDx=0;exitDy=0;entryX=0.5;entryY=0;entryDx=0;entryDy=0;strokeColor=default;align=center;verticalAlign=middle;fontFamily=Helvetica;fontSize=12;fontColor=default;labelBackgroundColor=default;startSize=8;endArrow=classic;endSize=8;" edge="1" parent="WIyWlLk6GJQsqaUBKTNV-1" source="E-XEG9pMoa77_9gsvEgl-2" target="E-XEG9pMoa77_9gsvEgl-32">
          <mxGeometry relative="1" as="geometry" />
        </mxCell>
        <mxCell id="WES9_ApV9j60BKVwQrfG-10" style="edgeStyle=orthogonalEdgeStyle;shape=connector;rounded=0;orthogonalLoop=1;jettySize=auto;html=1;exitX=0.75;exitY=1;exitDx=0;exitDy=0;entryX=0.5;entryY=0;entryDx=0;entryDy=0;strokeColor=default;align=center;verticalAlign=middle;fontFamily=Helvetica;fontSize=12;fontColor=default;labelBackgroundColor=default;startSize=8;endArrow=classic;endSize=8;" edge="1" parent="WIyWlLk6GJQsqaUBKTNV-1" source="E-XEG9pMoa77_9gsvEgl-2" target="WES9_ApV9j60BKVwQrfG-0">
          <mxGeometry relative="1" as="geometry" />
        </mxCell>
        <mxCell id="WES9_ApV9j60BKVwQrfG-15" style="edgeStyle=orthogonalEdgeStyle;shape=connector;rounded=0;orthogonalLoop=1;jettySize=auto;html=1;exitX=1;exitY=0.25;exitDx=0;exitDy=0;entryX=0;entryY=0.5;entryDx=0;entryDy=0;strokeColor=default;align=center;verticalAlign=middle;fontFamily=Helvetica;fontSize=12;fontColor=default;labelBackgroundColor=default;startSize=8;endArrow=classic;endSize=8;" edge="1" parent="WIyWlLk6GJQsqaUBKTNV-1" source="E-XEG9pMoa77_9gsvEgl-2" target="E-XEG9pMoa77_9gsvEgl-14">
          <mxGeometry relative="1" as="geometry" />
        </mxCell>
        <mxCell id="WES9_ApV9j60BKVwQrfG-16" style="edgeStyle=orthogonalEdgeStyle;shape=connector;rounded=0;orthogonalLoop=1;jettySize=auto;html=1;exitX=1;exitY=0.5;exitDx=0;exitDy=0;entryX=0;entryY=0.5;entryDx=0;entryDy=0;strokeColor=default;align=center;verticalAlign=middle;fontFamily=Helvetica;fontSize=12;fontColor=default;labelBackgroundColor=default;startSize=8;endArrow=classic;endSize=8;" edge="1" parent="WIyWlLk6GJQsqaUBKTNV-1" source="E-XEG9pMoa77_9gsvEgl-2" target="E-XEG9pMoa77_9gsvEgl-36">
          <mxGeometry relative="1" as="geometry" />
        </mxCell>
        <mxCell id="WES9_ApV9j60BKVwQrfG-17" style="edgeStyle=orthogonalEdgeStyle;shape=connector;rounded=0;orthogonalLoop=1;jettySize=auto;html=1;exitX=1;exitY=0.5;exitDx=0;exitDy=0;entryX=0;entryY=0.5;entryDx=0;entryDy=0;strokeColor=default;align=center;verticalAlign=middle;fontFamily=Helvetica;fontSize=12;fontColor=default;labelBackgroundColor=default;startSize=8;endArrow=classic;endSize=8;" edge="1" parent="WIyWlLk6GJQsqaUBKTNV-1" source="E-XEG9pMoa77_9gsvEgl-2" target="WES9_ApV9j60BKVwQrfG-12">
          <mxGeometry relative="1" as="geometry" />
        </mxCell>
        <mxCell id="WES9_ApV9j60BKVwQrfG-18" style="edgeStyle=orthogonalEdgeStyle;shape=connector;rounded=0;orthogonalLoop=1;jettySize=auto;html=1;exitX=1;exitY=1;exitDx=0;exitDy=0;entryX=0;entryY=0.5;entryDx=0;entryDy=0;strokeColor=default;align=center;verticalAlign=middle;fontFamily=Helvetica;fontSize=12;fontColor=default;labelBackgroundColor=default;startSize=8;endArrow=classic;endSize=8;" edge="1" parent="WIyWlLk6GJQsqaUBKTNV-1" source="E-XEG9pMoa77_9gsvEgl-2" target="WES9_ApV9j60BKVwQrfG-13">
          <mxGeometry relative="1" as="geometry" />
        </mxCell>
        <mxCell id="E-XEG9pMoa77_9gsvEgl-2" value="Users/&lt;div&gt;Passangers&lt;/div&gt;" style="rounded=0;whiteSpace=wrap;html=1;fillColor=#fff2cc;strokeColor=#d6b656;" vertex="1" parent="WIyWlLk6GJQsqaUBKTNV-1">
          <mxGeometry x="-690" y="430" width="90" height="40" as="geometry" />
        </mxCell>
        <mxCell id="WES9_ApV9j60BKVwQrfG-75" style="edgeStyle=orthogonalEdgeStyle;shape=connector;rounded=0;orthogonalLoop=1;jettySize=auto;html=1;exitX=0.25;exitY=0;exitDx=0;exitDy=0;entryX=1;entryY=1;entryDx=0;entryDy=0;strokeColor=default;align=center;verticalAlign=middle;fontFamily=Helvetica;fontSize=12;fontColor=default;labelBackgroundColor=default;startSize=8;endArrow=classic;endSize=8;" edge="1" parent="WIyWlLk6GJQsqaUBKTNV-1" source="E-XEG9pMoa77_9gsvEgl-4" target="WES9_ApV9j60BKVwQrfG-14">
          <mxGeometry relative="1" as="geometry">
            <Array as="points">
              <mxPoint x="190" y="725" />
              <mxPoint x="190" y="610" />
              <mxPoint x="-265" y="610" />
            </Array>
          </mxGeometry>
        </mxCell>
        <mxCell id="WES9_ApV9j60BKVwQrfG-80" style="edgeStyle=orthogonalEdgeStyle;shape=connector;rounded=0;orthogonalLoop=1;jettySize=auto;html=1;exitX=1;exitY=0.5;exitDx=0;exitDy=0;entryX=0;entryY=0.5;entryDx=0;entryDy=0;strokeColor=default;align=center;verticalAlign=middle;fontFamily=Helvetica;fontSize=12;fontColor=default;labelBackgroundColor=default;startSize=8;endArrow=classic;endSize=8;" edge="1" parent="WIyWlLk6GJQsqaUBKTNV-1" source="E-XEG9pMoa77_9gsvEgl-4" target="E-XEG9pMoa77_9gsvEgl-22">
          <mxGeometry relative="1" as="geometry" />
        </mxCell>
        <mxCell id="WES9_ApV9j60BKVwQrfG-84" style="edgeStyle=orthogonalEdgeStyle;shape=connector;rounded=0;orthogonalLoop=1;jettySize=auto;html=1;exitX=1;exitY=0.75;exitDx=0;exitDy=0;entryX=0;entryY=0.5;entryDx=0;entryDy=0;strokeColor=default;align=center;verticalAlign=middle;fontFamily=Helvetica;fontSize=12;fontColor=default;labelBackgroundColor=default;startSize=8;endArrow=classic;endSize=8;" edge="1" parent="WIyWlLk6GJQsqaUBKTNV-1" source="E-XEG9pMoa77_9gsvEgl-4" target="WES9_ApV9j60BKVwQrfG-78">
          <mxGeometry relative="1" as="geometry" />
        </mxCell>
        <mxCell id="E-XEG9pMoa77_9gsvEgl-4" value="System" style="rounded=0;whiteSpace=wrap;html=1;fillColor=#fff2cc;strokeColor=#d6b656;" vertex="1" parent="WIyWlLk6GJQsqaUBKTNV-1">
          <mxGeometry x="162" y="725" width="153" height="70" as="geometry" />
        </mxCell>
        <mxCell id="WES9_ApV9j60BKVwQrfG-67" style="edgeStyle=orthogonalEdgeStyle;shape=connector;rounded=0;orthogonalLoop=1;jettySize=auto;html=1;exitX=0.25;exitY=0;exitDx=0;exitDy=0;entryX=1;entryY=0.5;entryDx=0;entryDy=0;strokeColor=default;align=center;verticalAlign=middle;fontFamily=Helvetica;fontSize=12;fontColor=default;labelBackgroundColor=default;startSize=8;endArrow=classic;endSize=8;" edge="1" parent="WIyWlLk6GJQsqaUBKTNV-1" source="E-XEG9pMoa77_9gsvEgl-5" target="E-XEG9pMoa77_9gsvEgl-19">
          <mxGeometry relative="1" as="geometry" />
        </mxCell>
        <mxCell id="WES9_ApV9j60BKVwQrfG-68" style="edgeStyle=orthogonalEdgeStyle;shape=connector;rounded=0;orthogonalLoop=1;jettySize=auto;html=1;exitX=0;exitY=0.25;exitDx=0;exitDy=0;entryX=1;entryY=0.5;entryDx=0;entryDy=0;strokeColor=default;align=center;verticalAlign=middle;fontFamily=Helvetica;fontSize=12;fontColor=default;labelBackgroundColor=default;startSize=8;endArrow=classic;endSize=8;" edge="1" parent="WIyWlLk6GJQsqaUBKTNV-1" source="E-XEG9pMoa77_9gsvEgl-5" target="WES9_ApV9j60BKVwQrfG-63">
          <mxGeometry relative="1" as="geometry" />
        </mxCell>
        <mxCell id="WES9_ApV9j60BKVwQrfG-69" style="edgeStyle=orthogonalEdgeStyle;shape=connector;rounded=0;orthogonalLoop=1;jettySize=auto;html=1;exitX=0;exitY=0.75;exitDx=0;exitDy=0;strokeColor=default;align=center;verticalAlign=middle;fontFamily=Helvetica;fontSize=12;fontColor=default;labelBackgroundColor=default;startSize=8;endArrow=classic;endSize=8;" edge="1" parent="WIyWlLk6GJQsqaUBKTNV-1" source="E-XEG9pMoa77_9gsvEgl-5" target="WES9_ApV9j60BKVwQrfG-64">
          <mxGeometry relative="1" as="geometry" />
        </mxCell>
        <mxCell id="E-XEG9pMoa77_9gsvEgl-5" value="Drivers" style="rounded=0;whiteSpace=wrap;html=1;fillColor=#fff2cc;strokeColor=#d6b656;" vertex="1" parent="WIyWlLk6GJQsqaUBKTNV-1">
          <mxGeometry x="440" y="471.25" width="140" height="60" as="geometry" />
        </mxCell>
        <mxCell id="WES9_ApV9j60BKVwQrfG-43" style="edgeStyle=orthogonalEdgeStyle;shape=connector;rounded=0;orthogonalLoop=1;jettySize=auto;html=1;exitX=0;exitY=0.5;exitDx=0;exitDy=0;entryX=1;entryY=0.5;entryDx=0;entryDy=0;strokeColor=default;align=center;verticalAlign=middle;fontFamily=Helvetica;fontSize=12;fontColor=default;labelBackgroundColor=default;startSize=8;endArrow=classic;endSize=8;" edge="1" parent="WIyWlLk6GJQsqaUBKTNV-1" source="E-XEG9pMoa77_9gsvEgl-7" target="E-XEG9pMoa77_9gsvEgl-11">
          <mxGeometry relative="1" as="geometry" />
        </mxCell>
        <mxCell id="WES9_ApV9j60BKVwQrfG-45" style="edgeStyle=orthogonalEdgeStyle;shape=connector;rounded=0;orthogonalLoop=1;jettySize=auto;html=1;exitX=0.25;exitY=1;exitDx=0;exitDy=0;entryX=0.5;entryY=0;entryDx=0;entryDy=0;strokeColor=default;align=center;verticalAlign=middle;fontFamily=Helvetica;fontSize=12;fontColor=default;labelBackgroundColor=default;startSize=8;endArrow=classic;endSize=8;" edge="1" parent="WIyWlLk6GJQsqaUBKTNV-1" source="E-XEG9pMoa77_9gsvEgl-7" target="WES9_ApV9j60BKVwQrfG-41">
          <mxGeometry relative="1" as="geometry" />
        </mxCell>
        <mxCell id="WES9_ApV9j60BKVwQrfG-54" style="edgeStyle=orthogonalEdgeStyle;shape=connector;rounded=0;orthogonalLoop=1;jettySize=auto;html=1;exitX=0;exitY=1;exitDx=0;exitDy=0;entryX=1;entryY=0.5;entryDx=0;entryDy=0;strokeColor=default;align=center;verticalAlign=middle;fontFamily=Helvetica;fontSize=12;fontColor=default;labelBackgroundColor=default;startSize=8;endArrow=classic;endSize=8;" edge="1" parent="WIyWlLk6GJQsqaUBKTNV-1" source="E-XEG9pMoa77_9gsvEgl-7" target="E-XEG9pMoa77_9gsvEgl-49">
          <mxGeometry relative="1" as="geometry">
            <Array as="points">
              <mxPoint x="-150" y="920" />
              <mxPoint x="-150" y="1105" />
            </Array>
          </mxGeometry>
        </mxCell>
        <mxCell id="WES9_ApV9j60BKVwQrfG-55" style="edgeStyle=orthogonalEdgeStyle;shape=connector;rounded=0;orthogonalLoop=1;jettySize=auto;html=1;exitX=0.25;exitY=0;exitDx=0;exitDy=0;entryX=0.5;entryY=1;entryDx=0;entryDy=0;strokeColor=default;align=center;verticalAlign=middle;fontFamily=Helvetica;fontSize=12;fontColor=default;labelBackgroundColor=default;startSize=8;endArrow=classic;endSize=8;" edge="1" parent="WIyWlLk6GJQsqaUBKTNV-1" source="E-XEG9pMoa77_9gsvEgl-7" target="E-XEG9pMoa77_9gsvEgl-25">
          <mxGeometry relative="1" as="geometry" />
        </mxCell>
        <mxCell id="WES9_ApV9j60BKVwQrfG-58" style="edgeStyle=orthogonalEdgeStyle;shape=connector;rounded=0;orthogonalLoop=1;jettySize=auto;html=1;exitX=1;exitY=0.25;exitDx=0;exitDy=0;entryX=0;entryY=0.5;entryDx=0;entryDy=0;strokeColor=default;align=center;verticalAlign=middle;fontFamily=Helvetica;fontSize=12;fontColor=default;labelBackgroundColor=default;startSize=8;endArrow=classic;endSize=8;" edge="1" parent="WIyWlLk6GJQsqaUBKTNV-1" source="E-XEG9pMoa77_9gsvEgl-7" target="WES9_ApV9j60BKVwQrfG-53">
          <mxGeometry relative="1" as="geometry" />
        </mxCell>
        <mxCell id="E-XEG9pMoa77_9gsvEgl-7" value="Administrators" style="rounded=0;whiteSpace=wrap;html=1;fillColor=#fff2cc;strokeColor=#d6b656;" vertex="1" parent="WIyWlLk6GJQsqaUBKTNV-1">
          <mxGeometry x="-160" y="845" width="150" height="75" as="geometry" />
        </mxCell>
        <mxCell id="E-XEG9pMoa77_9gsvEgl-8" style="edgeStyle=orthogonalEdgeStyle;rounded=0;orthogonalLoop=1;jettySize=auto;html=1;exitX=0.5;exitY=1;exitDx=0;exitDy=0;entryX=0;entryY=0.5;entryDx=0;entryDy=0;" edge="1" parent="WIyWlLk6GJQsqaUBKTNV-1" source="E-XEG9pMoa77_9gsvEgl-9" target="E-XEG9pMoa77_9gsvEgl-26">
          <mxGeometry relative="1" as="geometry" />
        </mxCell>
        <mxCell id="E-XEG9pMoa77_9gsvEgl-9" value="1.1&amp;nbsp;&lt;span class=&quot;cf0&quot;&gt;User Registration&lt;/span&gt;" style="ellipse;whiteSpace=wrap;html=1;fillColor=#dae8fc;strokeColor=#6c8ebf;" vertex="1" parent="WIyWlLk6GJQsqaUBKTNV-1">
          <mxGeometry x="-820" y="687.5" width="120" height="55" as="geometry" />
        </mxCell>
        <mxCell id="E-XEG9pMoa77_9gsvEgl-11" value="&lt;span class=&quot;cf0&quot;&gt;4.1. User Account Creation&lt;/span&gt;" style="ellipse;whiteSpace=wrap;html=1;fillColor=#dae8fc;strokeColor=#6c8ebf;" vertex="1" parent="WIyWlLk6GJQsqaUBKTNV-1">
          <mxGeometry x="-450" y="820" width="140" height="50" as="geometry" />
        </mxCell>
        <mxCell id="WES9_ApV9j60BKVwQrfG-21" style="edgeStyle=orthogonalEdgeStyle;shape=connector;rounded=0;orthogonalLoop=1;jettySize=auto;html=1;exitX=1;exitY=0.5;exitDx=0;exitDy=0;entryX=0.097;entryY=-0.05;entryDx=0;entryDy=0;strokeColor=default;align=center;verticalAlign=middle;fontFamily=Helvetica;fontSize=12;fontColor=default;labelBackgroundColor=default;startSize=8;endArrow=classic;endSize=8;entryPerimeter=0;" edge="1" parent="WIyWlLk6GJQsqaUBKTNV-1" source="E-XEG9pMoa77_9gsvEgl-14" target="E-XEG9pMoa77_9gsvEgl-28">
          <mxGeometry relative="1" as="geometry">
            <Array as="points">
              <mxPoint x="-323" y="380" />
              <mxPoint x="-50" y="380" />
            </Array>
          </mxGeometry>
        </mxCell>
        <mxCell id="E-XEG9pMoa77_9gsvEgl-14" value="&lt;p class=&quot;pf0&quot;&gt;&lt;span class=&quot;cf0&quot;&gt;2.1. Route Browsing&lt;/span&gt;&lt;/p&gt;" style="ellipse;whiteSpace=wrap;html=1;fillColor=#dae8fc;strokeColor=#6c8ebf;" vertex="1" parent="WIyWlLk6GJQsqaUBKTNV-1">
          <mxGeometry x="-423" y="318.75" width="100" height="50" as="geometry" />
        </mxCell>
        <mxCell id="WES9_ApV9j60BKVwQrfG-74" style="edgeStyle=orthogonalEdgeStyle;shape=connector;rounded=0;orthogonalLoop=1;jettySize=auto;html=1;exitX=0;exitY=0.5;exitDx=0;exitDy=0;entryX=0.75;entryY=0;entryDx=0;entryDy=0;strokeColor=default;align=center;verticalAlign=middle;fontFamily=Helvetica;fontSize=12;fontColor=default;labelBackgroundColor=default;startSize=8;endArrow=classic;endSize=8;" edge="1" parent="WIyWlLk6GJQsqaUBKTNV-1" source="E-XEG9pMoa77_9gsvEgl-19" target="E-XEG9pMoa77_9gsvEgl-28">
          <mxGeometry relative="1" as="geometry" />
        </mxCell>
        <mxCell id="E-XEG9pMoa77_9gsvEgl-19" value="&lt;p class=&quot;pf0&quot;&gt;&lt;span class=&quot;cf0&quot;&gt;6.1. Location Recording&lt;/span&gt;&lt;/p&gt;" style="ellipse;whiteSpace=wrap;html=1;fillColor=#dae8fc;strokeColor=#6c8ebf;" vertex="1" parent="WIyWlLk6GJQsqaUBKTNV-1">
          <mxGeometry x="304" y="363.75" width="110" height="50" as="geometry" />
        </mxCell>
        <mxCell id="WES9_ApV9j60BKVwQrfG-81" style="edgeStyle=orthogonalEdgeStyle;shape=connector;rounded=0;orthogonalLoop=1;jettySize=auto;html=1;exitX=1;exitY=0.5;exitDx=0;exitDy=0;entryX=0;entryY=0.5;entryDx=0;entryDy=0;strokeColor=default;align=center;verticalAlign=middle;fontFamily=Helvetica;fontSize=12;fontColor=default;labelBackgroundColor=default;startSize=8;endArrow=classic;endSize=8;" edge="1" parent="WIyWlLk6GJQsqaUBKTNV-1" source="E-XEG9pMoa77_9gsvEgl-22" target="WES9_ApV9j60BKVwQrfG-79">
          <mxGeometry relative="1" as="geometry" />
        </mxCell>
        <mxCell id="WES9_ApV9j60BKVwQrfG-90" style="edgeStyle=orthogonalEdgeStyle;shape=connector;rounded=0;orthogonalLoop=1;jettySize=auto;html=1;entryX=1;entryY=0.25;entryDx=0;entryDy=0;strokeColor=default;align=center;verticalAlign=middle;fontFamily=Helvetica;fontSize=12;fontColor=default;labelBackgroundColor=default;startSize=8;endArrow=classic;endSize=8;" edge="1" parent="WIyWlLk6GJQsqaUBKTNV-1" source="E-XEG9pMoa77_9gsvEgl-22" target="E-XEG9pMoa77_9gsvEgl-27">
          <mxGeometry relative="1" as="geometry" />
        </mxCell>
        <mxCell id="E-XEG9pMoa77_9gsvEgl-22" value="&lt;p class=&quot;pf0&quot;&gt;&lt;span class=&quot;cf0&quot;&gt;7.1. Data Collection&lt;/span&gt;&lt;/p&gt;" style="ellipse;whiteSpace=wrap;html=1;fillColor=#dae8fc;strokeColor=#6c8ebf;" vertex="1" parent="WIyWlLk6GJQsqaUBKTNV-1">
          <mxGeometry x="360" y="700" width="120" height="70" as="geometry" />
        </mxCell>
        <mxCell id="E-XEG9pMoa77_9gsvEgl-25" value="&lt;p class=&quot;pf0&quot;&gt;&lt;span class=&quot;cf0&quot;&gt;5.1. Schedule Creation&lt;/span&gt;&lt;/p&gt;" style="ellipse;whiteSpace=wrap;html=1;fillColor=#dae8fc;strokeColor=#6c8ebf;" vertex="1" parent="WIyWlLk6GJQsqaUBKTNV-1">
          <mxGeometry x="-260" y="745" width="130" height="50" as="geometry" />
        </mxCell>
        <mxCell id="E-XEG9pMoa77_9gsvEgl-26" value="User Database" style="shape=partialRectangle;whiteSpace=wrap;html=1;left=0;right=0;fillColor=light-dark(#dee8de, #1f2f1e);strokeColor=light-dark(#82b366, #ededed);shadow=1;strokeWidth=6;" vertex="1" parent="WIyWlLk6GJQsqaUBKTNV-1">
          <mxGeometry x="-680" y="930" width="180" height="70" as="geometry" />
        </mxCell>
        <mxCell id="E-XEG9pMoa77_9gsvEgl-27" value="Buses Database" style="shape=partialRectangle;whiteSpace=wrap;html=1;left=0;right=0;fillColor=light-dark(#dee8de, #1f2f1e);strokeColor=light-dark(#82b366, #ededed);shadow=1;" vertex="1" parent="WIyWlLk6GJQsqaUBKTNV-1">
          <mxGeometry x="215" y="950" width="100" height="30" as="geometry" />
        </mxCell>
        <mxCell id="E-XEG9pMoa77_9gsvEgl-28" value="&lt;font style=&quot;font-size: 18px;&quot;&gt;Operations Database&lt;/font&gt;" style="shape=partialRectangle;whiteSpace=wrap;html=1;left=0;right=0;fillColor=light-dark(#dee8de, #1f2f1e);strokeColor=light-dark(#82b366, #ededed);shadow=1;strokeWidth=7;" vertex="1" parent="WIyWlLk6GJQsqaUBKTNV-1">
          <mxGeometry x="-60" y="470" width="150" height="100" as="geometry" />
        </mxCell>
        <mxCell id="WES9_ApV9j60BKVwQrfG-32" style="edgeStyle=orthogonalEdgeStyle;shape=connector;rounded=0;orthogonalLoop=1;jettySize=auto;html=1;entryX=0;entryY=1;entryDx=0;entryDy=0;strokeColor=default;align=center;verticalAlign=middle;fontFamily=Helvetica;fontSize=12;fontColor=default;labelBackgroundColor=default;startSize=8;endArrow=classic;endSize=8;" edge="1" parent="WIyWlLk6GJQsqaUBKTNV-1" source="E-XEG9pMoa77_9gsvEgl-29" target="E-XEG9pMoa77_9gsvEgl-46">
          <mxGeometry relative="1" as="geometry" />
        </mxCell>
        <mxCell id="E-XEG9pMoa77_9gsvEgl-29" value="&lt;p class=&quot;pf0&quot;&gt;&lt;span class=&quot;cf0&quot;&gt;3.1. Ticket Selection&lt;/span&gt;&lt;/p&gt;" style="ellipse;whiteSpace=wrap;html=1;fillColor=#dae8fc;strokeColor=#6c8ebf;" vertex="1" parent="WIyWlLk6GJQsqaUBKTNV-1">
          <mxGeometry x="-740" y="280" width="100" height="50" as="geometry" />
        </mxCell>
        <mxCell id="E-XEG9pMoa77_9gsvEgl-30" value="Ticket Database" style="shape=partialRectangle;whiteSpace=wrap;html=1;left=0;right=0;fillColor=light-dark(#dee8de, #1f2f1e);strokeColor=light-dark(#82b366, #ededed);shadow=1;strokeWidth=6;" vertex="1" parent="WIyWlLk6GJQsqaUBKTNV-1">
          <mxGeometry x="-670" y="60" width="100" height="30" as="geometry" />
        </mxCell>
        <mxCell id="E-XEG9pMoa77_9gsvEgl-32" value="1.2 User Authentication" style="ellipse;whiteSpace=wrap;html=1;fillColor=#dae8fc;strokeColor=#6c8ebf;" vertex="1" parent="WIyWlLk6GJQsqaUBKTNV-1">
          <mxGeometry x="-740" y="592.5" width="110" height="57.5" as="geometry" />
        </mxCell>
        <mxCell id="E-XEG9pMoa77_9gsvEgl-35" style="edgeStyle=orthogonalEdgeStyle;rounded=0;orthogonalLoop=1;jettySize=auto;html=1;exitX=0.5;exitY=1;exitDx=0;exitDy=0;entryX=0;entryY=0.5;entryDx=0;entryDy=0;fontSize=12;startSize=8;endSize=8;" edge="1" parent="WIyWlLk6GJQsqaUBKTNV-1" source="E-XEG9pMoa77_9gsvEgl-32" target="E-XEG9pMoa77_9gsvEgl-26">
          <mxGeometry relative="1" as="geometry" />
        </mxCell>
        <mxCell id="WES9_ApV9j60BKVwQrfG-22" style="edgeStyle=orthogonalEdgeStyle;shape=connector;rounded=0;orthogonalLoop=1;jettySize=auto;html=1;exitX=1;exitY=0.5;exitDx=0;exitDy=0;entryX=0.25;entryY=0;entryDx=0;entryDy=0;strokeColor=default;align=center;verticalAlign=middle;fontFamily=Helvetica;fontSize=12;fontColor=default;labelBackgroundColor=default;startSize=8;endArrow=classic;endSize=8;" edge="1" parent="WIyWlLk6GJQsqaUBKTNV-1" source="E-XEG9pMoa77_9gsvEgl-36" target="E-XEG9pMoa77_9gsvEgl-28">
          <mxGeometry relative="1" as="geometry" />
        </mxCell>
        <mxCell id="E-XEG9pMoa77_9gsvEgl-36" value="&lt;p class=&quot;pf0&quot;&gt;&lt;span class=&quot;cf0&quot;&gt;2.2. Schedule Lookup&lt;/span&gt;&lt;/p&gt;" style="ellipse;whiteSpace=wrap;html=1;fillColor=#dae8fc;strokeColor=#6c8ebf;" vertex="1" parent="WIyWlLk6GJQsqaUBKTNV-1">
          <mxGeometry x="-480" y="378.75" width="100" height="50" as="geometry" />
        </mxCell>
        <mxCell id="E-XEG9pMoa77_9gsvEgl-46" value="3.2&lt;span style=&quot;background-color: transparent; color: light-dark(rgb(0, 0, 0), rgb(255, 255, 255));&quot;&gt;&amp;nbsp;Payment Processing&lt;/span&gt;" style="ellipse;whiteSpace=wrap;html=1;fillColor=#dae8fc;strokeColor=#6c8ebf;" vertex="1" parent="WIyWlLk6GJQsqaUBKTNV-1">
          <mxGeometry x="-620" y="260" width="100" height="50" as="geometry" />
        </mxCell>
        <mxCell id="E-XEG9pMoa77_9gsvEgl-49" value="&lt;p class=&quot;pf0&quot;&gt;&lt;span class=&quot;cf0&quot;&gt;4.4. User Support&lt;/span&gt;&lt;/p&gt;" style="ellipse;whiteSpace=wrap;html=1;fillColor=#dae8fc;strokeColor=#6c8ebf;" vertex="1" parent="WIyWlLk6GJQsqaUBKTNV-1">
          <mxGeometry x="-400" y="1080" width="130" height="50" as="geometry" />
        </mxCell>
        <mxCell id="WES9_ApV9j60BKVwQrfG-5" style="edgeStyle=orthogonalEdgeStyle;shape=connector;rounded=0;orthogonalLoop=1;jettySize=auto;html=1;exitX=0.5;exitY=1;exitDx=0;exitDy=0;entryX=0;entryY=0;entryDx=0;entryDy=0;strokeColor=default;align=center;verticalAlign=middle;fontFamily=Helvetica;fontSize=12;fontColor=default;labelBackgroundColor=default;startSize=8;endArrow=classic;endSize=8;" edge="1" parent="WIyWlLk6GJQsqaUBKTNV-1" source="WES9_ApV9j60BKVwQrfG-0" target="E-XEG9pMoa77_9gsvEgl-26">
          <mxGeometry relative="1" as="geometry" />
        </mxCell>
        <mxCell id="WES9_ApV9j60BKVwQrfG-0" value="&lt;p class=&quot;pf0&quot;&gt;&lt;span class=&quot;cf0&quot;&gt;1.3. Profile Management&lt;/span&gt;&lt;/p&gt;" style="ellipse;whiteSpace=wrap;html=1;fillColor=#dae8fc;strokeColor=#6c8ebf;" vertex="1" parent="WIyWlLk6GJQsqaUBKTNV-1">
          <mxGeometry x="-660" y="687.5" width="110" height="57.5" as="geometry" />
        </mxCell>
        <mxCell id="WES9_ApV9j60BKVwQrfG-4" style="edgeStyle=orthogonalEdgeStyle;shape=connector;rounded=0;orthogonalLoop=1;jettySize=auto;html=1;exitX=0.5;exitY=1;exitDx=0;exitDy=0;entryX=0.75;entryY=0;entryDx=0;entryDy=0;strokeColor=default;align=center;verticalAlign=middle;fontFamily=Helvetica;fontSize=12;fontColor=default;labelBackgroundColor=default;startSize=8;endArrow=classic;endSize=8;" edge="1" parent="WIyWlLk6GJQsqaUBKTNV-1" source="WES9_ApV9j60BKVwQrfG-2" target="E-XEG9pMoa77_9gsvEgl-26">
          <mxGeometry relative="1" as="geometry" />
        </mxCell>
        <mxCell id="WES9_ApV9j60BKVwQrfG-2" value="&lt;p class=&quot;pf0&quot;&gt;&lt;span class=&quot;cf0&quot;&gt;1.4. Account Recovery&lt;/span&gt;&lt;/p&gt;" style="ellipse;whiteSpace=wrap;html=1;fillColor=#dae8fc;strokeColor=#6c8ebf;" vertex="1" parent="WIyWlLk6GJQsqaUBKTNV-1">
          <mxGeometry x="-580" y="600" width="110" height="57.5" as="geometry" />
        </mxCell>
        <mxCell id="WES9_ApV9j60BKVwQrfG-7" style="edgeStyle=orthogonalEdgeStyle;shape=connector;rounded=0;orthogonalLoop=1;jettySize=auto;html=1;exitX=0.5;exitY=1;exitDx=0;exitDy=0;entryX=0.236;entryY=0.076;entryDx=0;entryDy=0;entryPerimeter=0;strokeColor=default;align=center;verticalAlign=middle;fontFamily=Helvetica;fontSize=12;fontColor=default;labelBackgroundColor=default;startSize=8;endArrow=classic;endSize=8;" edge="1" parent="WIyWlLk6GJQsqaUBKTNV-1" source="E-XEG9pMoa77_9gsvEgl-2" target="WES9_ApV9j60BKVwQrfG-2">
          <mxGeometry relative="1" as="geometry" />
        </mxCell>
        <mxCell id="WES9_ApV9j60BKVwQrfG-23" style="edgeStyle=orthogonalEdgeStyle;shape=connector;rounded=0;orthogonalLoop=1;jettySize=auto;html=1;exitX=1;exitY=0.5;exitDx=0;exitDy=0;entryX=0;entryY=0.25;entryDx=0;entryDy=0;strokeColor=default;align=center;verticalAlign=middle;fontFamily=Helvetica;fontSize=12;fontColor=default;labelBackgroundColor=default;startSize=8;endArrow=classic;endSize=8;" edge="1" parent="WIyWlLk6GJQsqaUBKTNV-1" source="WES9_ApV9j60BKVwQrfG-12" target="E-XEG9pMoa77_9gsvEgl-28">
          <mxGeometry relative="1" as="geometry" />
        </mxCell>
        <mxCell id="WES9_ApV9j60BKVwQrfG-12" value="&lt;p class=&quot;pf0&quot;&gt;&lt;span class=&quot;cf0&quot;&gt;2.3. Journey Planning&lt;/span&gt;&lt;/p&gt;" style="ellipse;whiteSpace=wrap;html=1;fillColor=#dae8fc;strokeColor=#6c8ebf;" vertex="1" parent="WIyWlLk6GJQsqaUBKTNV-1">
          <mxGeometry x="-360" y="413.75" width="100" height="50" as="geometry" />
        </mxCell>
        <mxCell id="WES9_ApV9j60BKVwQrfG-13" value="&lt;p class=&quot;pf0&quot;&gt;&lt;span class=&quot;cf0&quot;&gt;2.4. Stop Information&lt;/span&gt;&lt;/p&gt;" style="ellipse;whiteSpace=wrap;html=1;fillColor=#dae8fc;strokeColor=#6c8ebf;" vertex="1" parent="WIyWlLk6GJQsqaUBKTNV-1">
          <mxGeometry x="-440" y="468.75" width="100" height="50" as="geometry" />
        </mxCell>
        <mxCell id="WES9_ApV9j60BKVwQrfG-28" style="edgeStyle=orthogonalEdgeStyle;shape=connector;rounded=0;orthogonalLoop=1;jettySize=auto;html=1;exitX=1;exitY=0.5;exitDx=0;exitDy=0;entryX=0;entryY=0.75;entryDx=0;entryDy=0;strokeColor=default;align=center;verticalAlign=middle;fontFamily=Helvetica;fontSize=12;fontColor=default;labelBackgroundColor=default;startSize=8;endArrow=classic;endSize=8;" edge="1" parent="WIyWlLk6GJQsqaUBKTNV-1" source="WES9_ApV9j60BKVwQrfG-14" target="E-XEG9pMoa77_9gsvEgl-28">
          <mxGeometry relative="1" as="geometry" />
        </mxCell>
        <mxCell id="WES9_ApV9j60BKVwQrfG-14" value="&lt;p class=&quot;pf0&quot;&gt;&lt;span class=&quot;cf0&quot;&gt;2.5. Real-time Updates&lt;/span&gt;&lt;/p&gt;" style="ellipse;whiteSpace=wrap;html=1;fillColor=#dae8fc;strokeColor=#6c8ebf;" vertex="1" parent="WIyWlLk6GJQsqaUBKTNV-1">
          <mxGeometry x="-350" y="531.25" width="100" height="50" as="geometry" />
        </mxCell>
        <mxCell id="WES9_ApV9j60BKVwQrfG-24" style="edgeStyle=orthogonalEdgeStyle;shape=connector;rounded=0;orthogonalLoop=1;jettySize=auto;html=1;exitX=1;exitY=0.5;exitDx=0;exitDy=0;entryX=0;entryY=0.5;entryDx=0;entryDy=0;strokeColor=default;align=center;verticalAlign=middle;fontFamily=Helvetica;fontSize=12;fontColor=default;labelBackgroundColor=default;startSize=8;endArrow=classic;endSize=8;" edge="1" parent="WIyWlLk6GJQsqaUBKTNV-1" source="WES9_ApV9j60BKVwQrfG-13" target="E-XEG9pMoa77_9gsvEgl-28">
          <mxGeometry relative="1" as="geometry" />
        </mxCell>
        <mxCell id="WES9_ApV9j60BKVwQrfG-39" style="edgeStyle=orthogonalEdgeStyle;shape=connector;rounded=0;orthogonalLoop=1;jettySize=auto;html=1;entryX=1;entryY=0.5;entryDx=0;entryDy=0;strokeColor=default;align=center;verticalAlign=middle;fontFamily=Helvetica;fontSize=12;fontColor=default;labelBackgroundColor=default;startSize=8;endArrow=classic;endSize=8;startArrow=classic;startFill=1;" edge="1" parent="WIyWlLk6GJQsqaUBKTNV-1" source="WES9_ApV9j60BKVwQrfG-29" target="E-XEG9pMoa77_9gsvEgl-30">
          <mxGeometry relative="1" as="geometry" />
        </mxCell>
        <mxCell id="WES9_ApV9j60BKVwQrfG-29" value="&lt;p class=&quot;pf0&quot;&gt;&lt;span class=&quot;cf0&quot;&gt;3.4. Ticket Validation&lt;/span&gt;&lt;/p&gt;" style="ellipse;whiteSpace=wrap;html=1;fillColor=#dae8fc;strokeColor=#6c8ebf;" vertex="1" parent="WIyWlLk6GJQsqaUBKTNV-1">
          <mxGeometry x="-530" y="105" width="100" height="50" as="geometry" />
        </mxCell>
        <mxCell id="WES9_ApV9j60BKVwQrfG-30" value="&lt;p class=&quot;pf0&quot;&gt;&lt;span class=&quot;cf0&quot;&gt;3.3 Payment Confirmation&lt;/span&gt;&lt;/p&gt;" style="ellipse;whiteSpace=wrap;html=1;fillColor=#dae8fc;strokeColor=#6c8ebf;" vertex="1" parent="WIyWlLk6GJQsqaUBKTNV-1">
          <mxGeometry x="-600" y="180" width="100" height="50" as="geometry" />
        </mxCell>
        <mxCell id="WES9_ApV9j60BKVwQrfG-31" style="edgeStyle=orthogonalEdgeStyle;shape=connector;rounded=0;orthogonalLoop=1;jettySize=auto;html=1;entryX=0.307;entryY=0.948;entryDx=0;entryDy=0;entryPerimeter=0;strokeColor=default;align=center;verticalAlign=middle;fontFamily=Helvetica;fontSize=12;fontColor=default;labelBackgroundColor=default;startSize=8;endArrow=classic;endSize=8;" edge="1" parent="WIyWlLk6GJQsqaUBKTNV-1" source="E-XEG9pMoa77_9gsvEgl-2" target="E-XEG9pMoa77_9gsvEgl-29">
          <mxGeometry relative="1" as="geometry" />
        </mxCell>
        <mxCell id="WES9_ApV9j60BKVwQrfG-33" style="edgeStyle=orthogonalEdgeStyle;shape=connector;rounded=0;orthogonalLoop=1;jettySize=auto;html=1;exitX=0.5;exitY=0;exitDx=0;exitDy=0;entryX=0.164;entryY=1.084;entryDx=0;entryDy=0;entryPerimeter=0;strokeColor=default;align=center;verticalAlign=middle;fontFamily=Helvetica;fontSize=12;fontColor=default;labelBackgroundColor=default;startSize=8;endArrow=classic;endSize=8;startArrow=classic;startFill=1;" edge="1" parent="WIyWlLk6GJQsqaUBKTNV-1" source="E-XEG9pMoa77_9gsvEgl-29" target="E-XEG9pMoa77_9gsvEgl-30">
          <mxGeometry relative="1" as="geometry" />
        </mxCell>
        <mxCell id="WES9_ApV9j60BKVwQrfG-37" style="edgeStyle=orthogonalEdgeStyle;shape=connector;rounded=0;orthogonalLoop=1;jettySize=auto;html=1;entryX=0.283;entryY=1.041;entryDx=0;entryDy=0;entryPerimeter=0;strokeColor=default;align=center;verticalAlign=middle;fontFamily=Helvetica;fontSize=12;fontColor=default;labelBackgroundColor=default;startSize=8;endArrow=classic;endSize=8;" edge="1" parent="WIyWlLk6GJQsqaUBKTNV-1" source="E-XEG9pMoa77_9gsvEgl-46" target="WES9_ApV9j60BKVwQrfG-30">
          <mxGeometry relative="1" as="geometry" />
        </mxCell>
        <mxCell id="WES9_ApV9j60BKVwQrfG-38" style="edgeStyle=orthogonalEdgeStyle;shape=connector;rounded=0;orthogonalLoop=1;jettySize=auto;html=1;exitX=1;exitY=0;exitDx=0;exitDy=0;entryX=0.293;entryY=0.954;entryDx=0;entryDy=0;entryPerimeter=0;strokeColor=default;align=center;verticalAlign=middle;fontFamily=Helvetica;fontSize=12;fontColor=default;labelBackgroundColor=default;startSize=8;endArrow=classic;endSize=8;" edge="1" parent="WIyWlLk6GJQsqaUBKTNV-1" source="WES9_ApV9j60BKVwQrfG-30" target="WES9_ApV9j60BKVwQrfG-29">
          <mxGeometry relative="1" as="geometry" />
        </mxCell>
        <mxCell id="WES9_ApV9j60BKVwQrfG-48" style="edgeStyle=orthogonalEdgeStyle;shape=connector;rounded=0;orthogonalLoop=1;jettySize=auto;html=1;exitX=0;exitY=0.5;exitDx=0;exitDy=0;entryX=1;entryY=0.25;entryDx=0;entryDy=0;strokeColor=default;align=center;verticalAlign=middle;fontFamily=Helvetica;fontSize=12;fontColor=default;labelBackgroundColor=default;startSize=8;endArrow=classic;endSize=8;" edge="1" parent="WIyWlLk6GJQsqaUBKTNV-1" source="WES9_ApV9j60BKVwQrfG-40" target="E-XEG9pMoa77_9gsvEgl-26">
          <mxGeometry relative="1" as="geometry" />
        </mxCell>
        <mxCell id="WES9_ApV9j60BKVwQrfG-40" value="&lt;p class=&quot;pf0&quot;&gt;&lt;span class=&quot;cf0&quot;&gt;4.2. User Permissions&lt;/span&gt;&lt;/p&gt;" style="ellipse;whiteSpace=wrap;html=1;fillColor=#dae8fc;strokeColor=#6c8ebf;" vertex="1" parent="WIyWlLk6GJQsqaUBKTNV-1">
          <mxGeometry x="-440" y="910" width="100" height="50" as="geometry" />
        </mxCell>
        <mxCell id="WES9_ApV9j60BKVwQrfG-49" style="edgeStyle=orthogonalEdgeStyle;shape=connector;rounded=0;orthogonalLoop=1;jettySize=auto;html=1;exitX=0;exitY=0.5;exitDx=0;exitDy=0;strokeColor=default;align=center;verticalAlign=middle;fontFamily=Helvetica;fontSize=12;fontColor=default;labelBackgroundColor=default;startSize=8;endArrow=classic;endSize=8;entryX=1;entryY=0.5;entryDx=0;entryDy=0;" edge="1" parent="WIyWlLk6GJQsqaUBKTNV-1" source="WES9_ApV9j60BKVwQrfG-41" target="E-XEG9pMoa77_9gsvEgl-26">
          <mxGeometry relative="1" as="geometry">
            <mxPoint x="-470" y="1034.7272727272725" as="targetPoint" />
          </mxGeometry>
        </mxCell>
        <mxCell id="WES9_ApV9j60BKVwQrfG-41" value="&lt;p class=&quot;pf0&quot;&gt;&lt;span class=&quot;cf0&quot;&gt;4.3. Account Suspension&lt;/span&gt;&lt;/p&gt;" style="ellipse;whiteSpace=wrap;html=1;fillColor=#dae8fc;strokeColor=#6c8ebf;" vertex="1" parent="WIyWlLk6GJQsqaUBKTNV-1">
          <mxGeometry x="-400" y="990" width="100" height="50" as="geometry" />
        </mxCell>
        <mxCell id="WES9_ApV9j60BKVwQrfG-44" style="edgeStyle=orthogonalEdgeStyle;shape=connector;rounded=0;orthogonalLoop=1;jettySize=auto;html=1;exitX=0;exitY=0.75;exitDx=0;exitDy=0;entryX=1;entryY=0.5;entryDx=0;entryDy=0;strokeColor=default;align=center;verticalAlign=middle;fontFamily=Helvetica;fontSize=12;fontColor=default;labelBackgroundColor=default;startSize=8;endArrow=classic;endSize=8;" edge="1" parent="WIyWlLk6GJQsqaUBKTNV-1" source="E-XEG9pMoa77_9gsvEgl-7" target="WES9_ApV9j60BKVwQrfG-40">
          <mxGeometry relative="1" as="geometry" />
        </mxCell>
        <mxCell id="WES9_ApV9j60BKVwQrfG-47" style="edgeStyle=orthogonalEdgeStyle;shape=connector;rounded=0;orthogonalLoop=1;jettySize=auto;html=1;entryX=0.891;entryY=0.048;entryDx=0;entryDy=0;entryPerimeter=0;strokeColor=default;align=center;verticalAlign=middle;fontFamily=Helvetica;fontSize=12;fontColor=default;labelBackgroundColor=default;startSize=8;endArrow=classic;endSize=8;" edge="1" parent="WIyWlLk6GJQsqaUBKTNV-1" source="E-XEG9pMoa77_9gsvEgl-11" target="E-XEG9pMoa77_9gsvEgl-26">
          <mxGeometry relative="1" as="geometry" />
        </mxCell>
        <mxCell id="WES9_ApV9j60BKVwQrfG-50" style="edgeStyle=orthogonalEdgeStyle;shape=connector;rounded=0;orthogonalLoop=1;jettySize=auto;html=1;exitX=0;exitY=1;exitDx=0;exitDy=0;entryX=0.36;entryY=1.018;entryDx=0;entryDy=0;entryPerimeter=0;strokeColor=default;align=center;verticalAlign=middle;fontFamily=Helvetica;fontSize=12;fontColor=default;labelBackgroundColor=default;startSize=8;endArrow=classic;endSize=8;" edge="1" parent="WIyWlLk6GJQsqaUBKTNV-1" source="E-XEG9pMoa77_9gsvEgl-49" target="E-XEG9pMoa77_9gsvEgl-26">
          <mxGeometry relative="1" as="geometry" />
        </mxCell>
        <mxCell id="WES9_ApV9j60BKVwQrfG-60" style="edgeStyle=orthogonalEdgeStyle;shape=connector;rounded=0;orthogonalLoop=1;jettySize=auto;html=1;exitX=1;exitY=0;exitDx=0;exitDy=0;strokeColor=default;align=center;verticalAlign=middle;fontFamily=Helvetica;fontSize=12;fontColor=default;labelBackgroundColor=default;startSize=8;endArrow=classic;endSize=8;entryX=0.25;entryY=1;entryDx=0;entryDy=0;" edge="1" parent="WIyWlLk6GJQsqaUBKTNV-1" source="WES9_ApV9j60BKVwQrfG-51" target="E-XEG9pMoa77_9gsvEgl-28">
          <mxGeometry relative="1" as="geometry">
            <mxPoint x="-30" y="570" as="targetPoint" />
          </mxGeometry>
        </mxCell>
        <mxCell id="WES9_ApV9j60BKVwQrfG-51" value="&lt;p class=&quot;pf0&quot;&gt;&lt;span class=&quot;cf0&quot;&gt;5.2. Schedule Editing&lt;/span&gt;&lt;/p&gt;" style="ellipse;whiteSpace=wrap;html=1;fillColor=#dae8fc;strokeColor=#6c8ebf;" vertex="1" parent="WIyWlLk6GJQsqaUBKTNV-1">
          <mxGeometry x="-160" y="695" width="130" height="50" as="geometry" />
        </mxCell>
        <mxCell id="WES9_ApV9j60BKVwQrfG-52" value="&lt;p class=&quot;pf0&quot;&gt;&lt;span class=&quot;cf0&quot;&gt;5.3. Schedule Publication&lt;/span&gt;&lt;/p&gt;" style="ellipse;whiteSpace=wrap;html=1;fillColor=#dae8fc;strokeColor=#6c8ebf;" vertex="1" parent="WIyWlLk6GJQsqaUBKTNV-1">
          <mxGeometry x="-90" y="760" width="130" height="50" as="geometry" />
        </mxCell>
        <mxCell id="WES9_ApV9j60BKVwQrfG-53" value="&lt;p class=&quot;pf0&quot;&gt;&lt;span class=&quot;cf0&quot;&gt;5.4. Special Schedule Management&lt;/span&gt;&lt;/p&gt;" style="ellipse;whiteSpace=wrap;html=1;fillColor=#dae8fc;strokeColor=#6c8ebf;" vertex="1" parent="WIyWlLk6GJQsqaUBKTNV-1">
          <mxGeometry x="60" y="810" width="130" height="50" as="geometry" />
        </mxCell>
        <mxCell id="WES9_ApV9j60BKVwQrfG-56" style="edgeStyle=orthogonalEdgeStyle;shape=connector;rounded=0;orthogonalLoop=1;jettySize=auto;html=1;exitX=0.5;exitY=0;exitDx=0;exitDy=0;entryX=0.299;entryY=0.942;entryDx=0;entryDy=0;entryPerimeter=0;strokeColor=default;align=center;verticalAlign=middle;fontFamily=Helvetica;fontSize=12;fontColor=default;labelBackgroundColor=default;startSize=8;endArrow=classic;endSize=8;" edge="1" parent="WIyWlLk6GJQsqaUBKTNV-1" source="E-XEG9pMoa77_9gsvEgl-7" target="WES9_ApV9j60BKVwQrfG-51">
          <mxGeometry relative="1" as="geometry" />
        </mxCell>
        <mxCell id="WES9_ApV9j60BKVwQrfG-57" style="edgeStyle=orthogonalEdgeStyle;shape=connector;rounded=0;orthogonalLoop=1;jettySize=auto;html=1;exitX=0.75;exitY=0;exitDx=0;exitDy=0;entryX=0.31;entryY=0.971;entryDx=0;entryDy=0;entryPerimeter=0;strokeColor=default;align=center;verticalAlign=middle;fontFamily=Helvetica;fontSize=12;fontColor=default;labelBackgroundColor=default;startSize=8;endArrow=classic;endSize=8;" edge="1" parent="WIyWlLk6GJQsqaUBKTNV-1" source="E-XEG9pMoa77_9gsvEgl-7" target="WES9_ApV9j60BKVwQrfG-52">
          <mxGeometry relative="1" as="geometry" />
        </mxCell>
        <mxCell id="WES9_ApV9j60BKVwQrfG-59" style="edgeStyle=orthogonalEdgeStyle;shape=connector;rounded=0;orthogonalLoop=1;jettySize=auto;html=1;exitX=0.5;exitY=0;exitDx=0;exitDy=0;entryX=0.118;entryY=1.047;entryDx=0;entryDy=0;entryPerimeter=0;strokeColor=default;align=center;verticalAlign=middle;fontFamily=Helvetica;fontSize=12;fontColor=default;labelBackgroundColor=default;startSize=8;endArrow=classic;endSize=8;" edge="1" parent="WIyWlLk6GJQsqaUBKTNV-1" source="E-XEG9pMoa77_9gsvEgl-25" target="E-XEG9pMoa77_9gsvEgl-28">
          <mxGeometry relative="1" as="geometry" />
        </mxCell>
        <mxCell id="WES9_ApV9j60BKVwQrfG-61" style="edgeStyle=orthogonalEdgeStyle;shape=connector;rounded=0;orthogonalLoop=1;jettySize=auto;html=1;exitX=0.5;exitY=0;exitDx=0;exitDy=0;entryX=0.389;entryY=1.022;entryDx=0;entryDy=0;entryPerimeter=0;strokeColor=default;align=center;verticalAlign=middle;fontFamily=Helvetica;fontSize=12;fontColor=default;labelBackgroundColor=default;startSize=8;endArrow=classic;endSize=8;" edge="1" parent="WIyWlLk6GJQsqaUBKTNV-1" source="WES9_ApV9j60BKVwQrfG-52" target="E-XEG9pMoa77_9gsvEgl-28">
          <mxGeometry relative="1" as="geometry" />
        </mxCell>
        <mxCell id="WES9_ApV9j60BKVwQrfG-62" style="edgeStyle=orthogonalEdgeStyle;shape=connector;rounded=0;orthogonalLoop=1;jettySize=auto;html=1;exitX=0;exitY=0;exitDx=0;exitDy=0;entryX=0.627;entryY=1.01;entryDx=0;entryDy=0;entryPerimeter=0;strokeColor=default;align=center;verticalAlign=middle;fontFamily=Helvetica;fontSize=12;fontColor=default;labelBackgroundColor=default;startSize=8;endArrow=classic;endSize=8;" edge="1" parent="WIyWlLk6GJQsqaUBKTNV-1" source="WES9_ApV9j60BKVwQrfG-53" target="E-XEG9pMoa77_9gsvEgl-28">
          <mxGeometry relative="1" as="geometry" />
        </mxCell>
        <mxCell id="WES9_ApV9j60BKVwQrfG-73" style="edgeStyle=orthogonalEdgeStyle;shape=connector;rounded=0;orthogonalLoop=1;jettySize=auto;html=1;exitX=0;exitY=0.5;exitDx=0;exitDy=0;entryX=1;entryY=0.25;entryDx=0;entryDy=0;strokeColor=default;align=center;verticalAlign=middle;fontFamily=Helvetica;fontSize=12;fontColor=default;labelBackgroundColor=default;startSize=8;endArrow=classic;endSize=8;" edge="1" parent="WIyWlLk6GJQsqaUBKTNV-1" source="WES9_ApV9j60BKVwQrfG-63" target="E-XEG9pMoa77_9gsvEgl-28">
          <mxGeometry relative="1" as="geometry" />
        </mxCell>
        <mxCell id="WES9_ApV9j60BKVwQrfG-63" value="&lt;p class=&quot;pf0&quot;&gt;&lt;span class=&quot;cf0&quot;&gt;6.2. Status Updates&lt;/span&gt;&lt;/p&gt;" style="ellipse;whiteSpace=wrap;html=1;fillColor=#dae8fc;strokeColor=#6c8ebf;" vertex="1" parent="WIyWlLk6GJQsqaUBKTNV-1">
          <mxGeometry x="240" y="440" width="110" height="50" as="geometry" />
        </mxCell>
        <mxCell id="WES9_ApV9j60BKVwQrfG-64" value="&lt;p class=&quot;pf0&quot;&gt;&lt;span class=&quot;cf0&quot;&gt;6.3. Delay Management&lt;/span&gt;&lt;/p&gt;" style="ellipse;whiteSpace=wrap;html=1;fillColor=#dae8fc;strokeColor=#6c8ebf;" vertex="1" parent="WIyWlLk6GJQsqaUBKTNV-1">
          <mxGeometry x="250" y="531.25" width="110" height="50" as="geometry" />
        </mxCell>
        <mxCell id="WES9_ApV9j60BKVwQrfG-65" value="&lt;span class=&quot;cf0&quot;&gt;6.4. Incident Reporting&lt;/span&gt;" style="ellipse;whiteSpace=wrap;html=1;fillColor=#dae8fc;strokeColor=#6c8ebf;" vertex="1" parent="WIyWlLk6GJQsqaUBKTNV-1">
          <mxGeometry x="330" y="610" width="110" height="50" as="geometry" />
        </mxCell>
        <mxCell id="WES9_ApV9j60BKVwQrfG-70" style="edgeStyle=orthogonalEdgeStyle;shape=connector;rounded=0;orthogonalLoop=1;jettySize=auto;html=1;exitX=0.25;exitY=1;exitDx=0;exitDy=0;entryX=0.619;entryY=0.066;entryDx=0;entryDy=0;entryPerimeter=0;strokeColor=default;align=center;verticalAlign=middle;fontFamily=Helvetica;fontSize=12;fontColor=default;labelBackgroundColor=default;startSize=8;endArrow=classic;endSize=8;" edge="1" parent="WIyWlLk6GJQsqaUBKTNV-1" source="E-XEG9pMoa77_9gsvEgl-5" target="WES9_ApV9j60BKVwQrfG-65">
          <mxGeometry relative="1" as="geometry" />
        </mxCell>
        <mxCell id="WES9_ApV9j60BKVwQrfG-71" style="edgeStyle=orthogonalEdgeStyle;shape=connector;rounded=0;orthogonalLoop=1;jettySize=auto;html=1;exitX=0;exitY=0.5;exitDx=0;exitDy=0;entryX=1.002;entryY=0.854;entryDx=0;entryDy=0;entryPerimeter=0;strokeColor=default;align=center;verticalAlign=middle;fontFamily=Helvetica;fontSize=12;fontColor=default;labelBackgroundColor=default;startSize=8;endArrow=classic;endSize=8;" edge="1" parent="WIyWlLk6GJQsqaUBKTNV-1" source="WES9_ApV9j60BKVwQrfG-65" target="E-XEG9pMoa77_9gsvEgl-28">
          <mxGeometry relative="1" as="geometry" />
        </mxCell>
        <mxCell id="WES9_ApV9j60BKVwQrfG-72" style="edgeStyle=orthogonalEdgeStyle;shape=connector;rounded=0;orthogonalLoop=1;jettySize=auto;html=1;exitX=0;exitY=0.5;exitDx=0;exitDy=0;entryX=1.007;entryY=0.564;entryDx=0;entryDy=0;entryPerimeter=0;strokeColor=default;align=center;verticalAlign=middle;fontFamily=Helvetica;fontSize=12;fontColor=default;labelBackgroundColor=default;startSize=8;endArrow=classic;endSize=8;" edge="1" parent="WIyWlLk6GJQsqaUBKTNV-1" source="WES9_ApV9j60BKVwQrfG-64" target="E-XEG9pMoa77_9gsvEgl-28">
          <mxGeometry relative="1" as="geometry" />
        </mxCell>
        <mxCell id="WES9_ApV9j60BKVwQrfG-83" style="edgeStyle=orthogonalEdgeStyle;shape=connector;rounded=0;orthogonalLoop=1;jettySize=auto;html=1;exitX=0.5;exitY=1;exitDx=0;exitDy=0;entryX=0.5;entryY=0;entryDx=0;entryDy=0;strokeColor=default;align=center;verticalAlign=middle;fontFamily=Helvetica;fontSize=12;fontColor=default;labelBackgroundColor=default;startSize=8;endArrow=classic;endSize=8;" edge="1" parent="WIyWlLk6GJQsqaUBKTNV-1" source="WES9_ApV9j60BKVwQrfG-76" target="WES9_ApV9j60BKVwQrfG-77">
          <mxGeometry relative="1" as="geometry" />
        </mxCell>
        <mxCell id="WES9_ApV9j60BKVwQrfG-89" style="edgeStyle=orthogonalEdgeStyle;shape=connector;rounded=0;orthogonalLoop=1;jettySize=auto;html=1;exitX=1;exitY=0.5;exitDx=0;exitDy=0;entryX=0.5;entryY=1;entryDx=0;entryDy=0;strokeColor=default;align=center;verticalAlign=middle;fontFamily=Helvetica;fontSize=12;fontColor=default;labelBackgroundColor=default;startSize=8;endArrow=classic;endSize=8;" edge="1" parent="WIyWlLk6GJQsqaUBKTNV-1" source="WES9_ApV9j60BKVwQrfG-76" target="E-XEG9pMoa77_9gsvEgl-27">
          <mxGeometry relative="1" as="geometry" />
        </mxCell>
        <mxCell id="WES9_ApV9j60BKVwQrfG-76" value="7. Real-time location&lt;div&gt;&amp;nbsp;updates&amp;nbsp;&lt;/div&gt;" style="ellipse;whiteSpace=wrap;html=1;fillColor=#dae8fc;strokeColor=#6c8ebf;" vertex="1" parent="WIyWlLk6GJQsqaUBKTNV-1">
          <mxGeometry x="670" y="700" width="120" height="70" as="geometry" />
        </mxCell>
        <mxCell id="WES9_ApV9j60BKVwQrfG-85" style="edgeStyle=orthogonalEdgeStyle;shape=connector;rounded=0;orthogonalLoop=1;jettySize=auto;html=1;exitX=0;exitY=0.5;exitDx=0;exitDy=0;entryX=1;entryY=0.5;entryDx=0;entryDy=0;strokeColor=default;align=center;verticalAlign=middle;fontFamily=Helvetica;fontSize=12;fontColor=default;labelBackgroundColor=default;startSize=8;endArrow=classic;endSize=8;" edge="1" parent="WIyWlLk6GJQsqaUBKTNV-1" source="WES9_ApV9j60BKVwQrfG-77" target="WES9_ApV9j60BKVwQrfG-78">
          <mxGeometry relative="1" as="geometry" />
        </mxCell>
        <mxCell id="WES9_ApV9j60BKVwQrfG-77" value="&lt;p class=&quot;pf0&quot;&gt;&lt;span class=&quot;cf0&quot;&gt;7.4. Display Preparation&lt;/span&gt;&lt;/p&gt;" style="ellipse;whiteSpace=wrap;html=1;fillColor=#dae8fc;strokeColor=#6c8ebf;" vertex="1" parent="WIyWlLk6GJQsqaUBKTNV-1">
          <mxGeometry x="670" y="800" width="120" height="70" as="geometry" />
        </mxCell>
        <mxCell id="WES9_ApV9j60BKVwQrfG-88" style="edgeStyle=orthogonalEdgeStyle;shape=connector;rounded=0;orthogonalLoop=1;jettySize=auto;html=1;exitX=0.5;exitY=1;exitDx=0;exitDy=0;entryX=1;entryY=0.5;entryDx=0;entryDy=0;strokeColor=default;align=center;verticalAlign=middle;fontFamily=Helvetica;fontSize=12;fontColor=default;labelBackgroundColor=default;startSize=8;endArrow=classic;endSize=8;" edge="1" parent="WIyWlLk6GJQsqaUBKTNV-1" source="WES9_ApV9j60BKVwQrfG-78" target="E-XEG9pMoa77_9gsvEgl-27">
          <mxGeometry relative="1" as="geometry" />
        </mxCell>
        <mxCell id="WES9_ApV9j60BKVwQrfG-78" value="&lt;span class=&quot;cf0&quot;&gt;7.5. Alert Generation&lt;/span&gt;" style="ellipse;whiteSpace=wrap;html=1;fillColor=#dae8fc;strokeColor=#6c8ebf;" vertex="1" parent="WIyWlLk6GJQsqaUBKTNV-1">
          <mxGeometry x="430" y="830" width="120" height="70" as="geometry" />
        </mxCell>
        <mxCell id="WES9_ApV9j60BKVwQrfG-82" style="edgeStyle=orthogonalEdgeStyle;shape=connector;rounded=0;orthogonalLoop=1;jettySize=auto;html=1;exitX=1;exitY=0.5;exitDx=0;exitDy=0;entryX=0;entryY=0.5;entryDx=0;entryDy=0;strokeColor=default;align=center;verticalAlign=middle;fontFamily=Helvetica;fontSize=12;fontColor=default;labelBackgroundColor=default;startSize=8;endArrow=classic;endSize=8;" edge="1" parent="WIyWlLk6GJQsqaUBKTNV-1" source="WES9_ApV9j60BKVwQrfG-79" target="WES9_ApV9j60BKVwQrfG-76">
          <mxGeometry relative="1" as="geometry" />
        </mxCell>
        <mxCell id="WES9_ApV9j60BKVwQrfG-79" value="&lt;p class=&quot;pf0&quot;&gt;&lt;span class=&quot;cf0&quot;&gt;7.2. Data Validation&lt;/span&gt;&lt;/p&gt;" style="ellipse;whiteSpace=wrap;html=1;fillColor=#dae8fc;strokeColor=#6c8ebf;" vertex="1" parent="WIyWlLk6GJQsqaUBKTNV-1">
          <mxGeometry x="520" y="700" width="120" height="70" as="geometry" />
        </mxCell>
        <mxCell id="WES9_ApV9j60BKVwQrfG-91" style="edgeStyle=orthogonalEdgeStyle;shape=connector;rounded=0;orthogonalLoop=1;jettySize=auto;html=1;exitX=0.027;exitY=0.714;exitDx=0;exitDy=0;entryX=0.88;entryY=1.029;entryDx=0;entryDy=0;entryPerimeter=0;strokeColor=default;align=center;verticalAlign=middle;fontFamily=Helvetica;fontSize=12;fontColor=default;labelBackgroundColor=default;startSize=8;endArrow=classic;endSize=8;exitPerimeter=0;" edge="1" parent="WIyWlLk6GJQsqaUBKTNV-1" source="WES9_ApV9j60BKVwQrfG-78" target="E-XEG9pMoa77_9gsvEgl-28">
          <mxGeometry relative="1" as="geometry">
            <Array as="points">
              <mxPoint x="360" y="880" />
              <mxPoint x="360" y="810" />
              <mxPoint x="72" y="810" />
            </Array>
          </mxGeometry>
        </mxCell>
      </root>
    </mxGraphModel>
  </diagram>
  <diagram id="2taj6gV2ojr9UY3EOCnU" name="Page-2">
    <mxGraphModel dx="2371" dy="1345" grid="0" gridSize="10" guides="1" tooltips="1" connect="1" arrows="1" fold="1" page="0" pageScale="1" pageWidth="850" pageHeight="1100" math="0" shadow="0">
      <root>
        <mxCell id="0" />
        <mxCell id="1" parent="0" />
        <mxCell id="LlhfenPxQo_bVWixK-Nv-1" style="edgeStyle=orthogonalEdgeStyle;rounded=0;orthogonalLoop=1;jettySize=auto;html=1;exitX=0.25;exitY=1;exitDx=0;exitDy=0;entryX=0.5;entryY=0;entryDx=0;entryDy=0;" edge="1" parent="1" source="LlhfenPxQo_bVWixK-Nv-3" target="LlhfenPxQo_bVWixK-Nv-10">
          <mxGeometry relative="1" as="geometry" />
        </mxCell>
        <mxCell id="LlhfenPxQo_bVWixK-Nv-2" style="edgeStyle=orthogonalEdgeStyle;rounded=0;orthogonalLoop=1;jettySize=auto;html=1;exitX=0.5;exitY=0;exitDx=0;exitDy=0;" edge="1" parent="1" source="LlhfenPxQo_bVWixK-Nv-3" target="LlhfenPxQo_bVWixK-Nv-30">
          <mxGeometry relative="1" as="geometry" />
        </mxCell>
        <mxCell id="LlhfenPxQo_bVWixK-Nv-3" value="Users/&lt;div&gt;Passangers&lt;/div&gt;" style="rounded=0;whiteSpace=wrap;html=1;fillColor=#fff2cc;strokeColor=#d6b656;" vertex="1" parent="1">
          <mxGeometry x="-62" y="57" width="90" height="40" as="geometry" />
        </mxCell>
        <mxCell id="LlhfenPxQo_bVWixK-Nv-4" style="edgeStyle=orthogonalEdgeStyle;rounded=0;orthogonalLoop=1;jettySize=auto;html=1;exitX=0.5;exitY=0;exitDx=0;exitDy=0;entryX=0.5;entryY=1;entryDx=0;entryDy=0;" edge="1" parent="1" source="LlhfenPxQo_bVWixK-Nv-5" target="LlhfenPxQo_bVWixK-Nv-15">
          <mxGeometry relative="1" as="geometry" />
        </mxCell>
        <mxCell id="LlhfenPxQo_bVWixK-Nv-5" value="System" style="rounded=0;whiteSpace=wrap;html=1;fillColor=#fff2cc;strokeColor=#d6b656;" vertex="1" parent="1">
          <mxGeometry x="128" y="377" width="100" height="40" as="geometry" />
        </mxCell>
        <mxCell id="LlhfenPxQo_bVWixK-Nv-6" value="Drivers" style="rounded=0;whiteSpace=wrap;html=1;fillColor=#fff2cc;strokeColor=#d6b656;" vertex="1" parent="1">
          <mxGeometry x="458" y="47" width="80" height="40" as="geometry" />
        </mxCell>
        <mxCell id="LlhfenPxQo_bVWixK-Nv-7" style="edgeStyle=orthogonalEdgeStyle;rounded=0;orthogonalLoop=1;jettySize=auto;html=1;exitX=1;exitY=0.5;exitDx=0;exitDy=0;entryX=0.5;entryY=0;entryDx=0;entryDy=0;" edge="1" parent="1" source="LlhfenPxQo_bVWixK-Nv-8" target="LlhfenPxQo_bVWixK-Nv-26">
          <mxGeometry relative="1" as="geometry" />
        </mxCell>
        <mxCell id="LlhfenPxQo_bVWixK-Nv-8" value="Administrators" style="rounded=0;whiteSpace=wrap;html=1;fillColor=#fff2cc;strokeColor=#d6b656;" vertex="1" parent="1">
          <mxGeometry x="242" y="-163" width="100" height="40" as="geometry" />
        </mxCell>
        <mxCell id="LlhfenPxQo_bVWixK-Nv-9" style="edgeStyle=orthogonalEdgeStyle;rounded=0;orthogonalLoop=1;jettySize=auto;html=1;exitX=0.5;exitY=1;exitDx=0;exitDy=0;entryX=0.5;entryY=0;entryDx=0;entryDy=0;" edge="1" parent="1" source="LlhfenPxQo_bVWixK-Nv-10" target="LlhfenPxQo_bVWixK-Nv-27">
          <mxGeometry relative="1" as="geometry" />
        </mxCell>
        <mxCell id="LlhfenPxQo_bVWixK-Nv-10" value="user account" style="ellipse;whiteSpace=wrap;html=1;fillColor=#dae8fc;strokeColor=#6c8ebf;" vertex="1" parent="1">
          <mxGeometry x="-132" y="207" width="100" height="50" as="geometry" />
        </mxCell>
        <mxCell id="LlhfenPxQo_bVWixK-Nv-11" style="edgeStyle=orthogonalEdgeStyle;rounded=0;orthogonalLoop=1;jettySize=auto;html=1;exitX=0.5;exitY=1;exitDx=0;exitDy=0;entryX=1;entryY=0.5;entryDx=0;entryDy=0;" edge="1" parent="1" source="LlhfenPxQo_bVWixK-Nv-12" target="LlhfenPxQo_bVWixK-Nv-27">
          <mxGeometry relative="1" as="geometry" />
        </mxCell>
        <mxCell id="LlhfenPxQo_bVWixK-Nv-12" value="Manage Users" style="ellipse;whiteSpace=wrap;html=1;fillColor=#dae8fc;strokeColor=#6c8ebf;" vertex="1" parent="1">
          <mxGeometry x="198" y="-23" width="130" height="50" as="geometry" />
        </mxCell>
        <mxCell id="LlhfenPxQo_bVWixK-Nv-13" style="edgeStyle=orthogonalEdgeStyle;rounded=0;orthogonalLoop=1;jettySize=auto;html=1;exitX=0.5;exitY=1;exitDx=0;exitDy=0;entryX=0.537;entryY=0.009;entryDx=0;entryDy=0;entryPerimeter=0;" edge="1" parent="1" source="LlhfenPxQo_bVWixK-Nv-8" target="LlhfenPxQo_bVWixK-Nv-12">
          <mxGeometry relative="1" as="geometry" />
        </mxCell>
        <mxCell id="LlhfenPxQo_bVWixK-Nv-14" style="edgeStyle=orthogonalEdgeStyle;rounded=0;orthogonalLoop=1;jettySize=auto;html=1;exitX=1;exitY=0.5;exitDx=0;exitDy=0;entryX=0;entryY=0.5;entryDx=0;entryDy=0;" edge="1" parent="1" source="LlhfenPxQo_bVWixK-Nv-15" target="LlhfenPxQo_bVWixK-Nv-29">
          <mxGeometry relative="1" as="geometry" />
        </mxCell>
        <mxCell id="LlhfenPxQo_bVWixK-Nv-15" value="view timetable" style="ellipse;whiteSpace=wrap;html=1;fillColor=#dae8fc;strokeColor=#6c8ebf;" vertex="1" parent="1">
          <mxGeometry x="68" y="207" width="100" height="50" as="geometry" />
        </mxCell>
        <mxCell id="LlhfenPxQo_bVWixK-Nv-16" style="edgeStyle=orthogonalEdgeStyle;rounded=0;orthogonalLoop=1;jettySize=auto;html=1;exitX=0.75;exitY=1;exitDx=0;exitDy=0;entryX=0.076;entryY=0.156;entryDx=0;entryDy=0;entryPerimeter=0;" edge="1" parent="1" source="LlhfenPxQo_bVWixK-Nv-3" target="LlhfenPxQo_bVWixK-Nv-15">
          <mxGeometry relative="1" as="geometry" />
        </mxCell>
        <mxCell id="LlhfenPxQo_bVWixK-Nv-17" style="edgeStyle=orthogonalEdgeStyle;rounded=0;orthogonalLoop=1;jettySize=auto;html=1;exitX=0.5;exitY=1;exitDx=0;exitDy=0;entryX=0.657;entryY=0.031;entryDx=0;entryDy=0;entryPerimeter=0;" edge="1" parent="1" source="LlhfenPxQo_bVWixK-Nv-6" target="LlhfenPxQo_bVWixK-Nv-15">
          <mxGeometry relative="1" as="geometry" />
        </mxCell>
        <mxCell id="LlhfenPxQo_bVWixK-Nv-18" style="edgeStyle=orthogonalEdgeStyle;rounded=0;orthogonalLoop=1;jettySize=auto;html=1;entryX=0.394;entryY=0.031;entryDx=0;entryDy=0;entryPerimeter=0;" edge="1" parent="1" source="LlhfenPxQo_bVWixK-Nv-8" target="LlhfenPxQo_bVWixK-Nv-15">
          <mxGeometry relative="1" as="geometry" />
        </mxCell>
        <mxCell id="LlhfenPxQo_bVWixK-Nv-19" style="edgeStyle=orthogonalEdgeStyle;rounded=0;orthogonalLoop=1;jettySize=auto;html=1;exitX=0.5;exitY=1;exitDx=0;exitDy=0;entryX=1;entryY=0.75;entryDx=0;entryDy=0;" edge="1" parent="1" source="LlhfenPxQo_bVWixK-Nv-20" target="LlhfenPxQo_bVWixK-Nv-28">
          <mxGeometry relative="1" as="geometry" />
        </mxCell>
        <mxCell id="LlhfenPxQo_bVWixK-Nv-20" value="Real-time tracking&amp;nbsp;" style="ellipse;whiteSpace=wrap;html=1;fillColor=#dae8fc;strokeColor=#6c8ebf;" vertex="1" parent="1">
          <mxGeometry x="443" y="177" width="110" height="50" as="geometry" />
        </mxCell>
        <mxCell id="LlhfenPxQo_bVWixK-Nv-21" style="edgeStyle=orthogonalEdgeStyle;rounded=0;orthogonalLoop=1;jettySize=auto;html=1;entryX=0.5;entryY=0.2;entryDx=0;entryDy=0;entryPerimeter=0;" edge="1" parent="1" source="LlhfenPxQo_bVWixK-Nv-6" target="LlhfenPxQo_bVWixK-Nv-20">
          <mxGeometry relative="1" as="geometry" />
        </mxCell>
        <mxCell id="LlhfenPxQo_bVWixK-Nv-22" style="edgeStyle=orthogonalEdgeStyle;rounded=0;orthogonalLoop=1;jettySize=auto;html=1;exitX=0.5;exitY=1;exitDx=0;exitDy=0;entryX=0.5;entryY=0;entryDx=0;entryDy=0;" edge="1" parent="1" source="LlhfenPxQo_bVWixK-Nv-23" target="LlhfenPxQo_bVWixK-Nv-28">
          <mxGeometry relative="1" as="geometry" />
        </mxCell>
        <mxCell id="LlhfenPxQo_bVWixK-Nv-23" value="Real-time location&lt;div&gt;&amp;nbsp;updates&amp;nbsp;&lt;/div&gt;" style="ellipse;whiteSpace=wrap;html=1;fillColor=#dae8fc;strokeColor=#6c8ebf;" vertex="1" parent="1">
          <mxGeometry x="338" y="412" width="120" height="70" as="geometry" />
        </mxCell>
        <mxCell id="LlhfenPxQo_bVWixK-Nv-24" style="edgeStyle=orthogonalEdgeStyle;rounded=0;orthogonalLoop=1;jettySize=auto;html=1;exitX=0.5;exitY=1;exitDx=0;exitDy=0;entryX=0;entryY=0.5;entryDx=0;entryDy=0;" edge="1" parent="1" source="LlhfenPxQo_bVWixK-Nv-5" target="LlhfenPxQo_bVWixK-Nv-23">
          <mxGeometry relative="1" as="geometry" />
        </mxCell>
        <mxCell id="LlhfenPxQo_bVWixK-Nv-25" style="edgeStyle=orthogonalEdgeStyle;rounded=0;orthogonalLoop=1;jettySize=auto;html=1;exitX=0.5;exitY=1;exitDx=0;exitDy=0;entryX=0.5;entryY=0;entryDx=0;entryDy=0;" edge="1" parent="1" source="LlhfenPxQo_bVWixK-Nv-26" target="LlhfenPxQo_bVWixK-Nv-29">
          <mxGeometry relative="1" as="geometry" />
        </mxCell>
        <mxCell id="LlhfenPxQo_bVWixK-Nv-26" value="Manage schedule" style="ellipse;whiteSpace=wrap;html=1;fillColor=#dae8fc;strokeColor=#6c8ebf;" vertex="1" parent="1">
          <mxGeometry x="368" y="-83" width="130" height="50" as="geometry" />
        </mxCell>
        <mxCell id="LlhfenPxQo_bVWixK-Nv-27" value="User Database" style="shape=partialRectangle;whiteSpace=wrap;html=1;left=0;right=0;fillColor=light-dark(#dee8de, #1f2f1e);strokeColor=light-dark(#82b366, #ededed);shadow=1;" vertex="1" parent="1">
          <mxGeometry x="-72" y="307" width="100" height="30" as="geometry" />
        </mxCell>
        <mxCell id="LlhfenPxQo_bVWixK-Nv-28" value="Buses Database" style="shape=partialRectangle;whiteSpace=wrap;html=1;left=0;right=0;fillColor=light-dark(#dee8de, #1f2f1e);strokeColor=light-dark(#82b366, #ededed);shadow=1;" vertex="1" parent="1">
          <mxGeometry x="348" y="542" width="100" height="30" as="geometry" />
        </mxCell>
        <mxCell id="LlhfenPxQo_bVWixK-Nv-29" value="Operations Database" style="shape=partialRectangle;whiteSpace=wrap;html=1;left=0;right=0;fillColor=light-dark(#dee8de, #1f2f1e);strokeColor=light-dark(#82b366, #ededed);shadow=1;" vertex="1" parent="1">
          <mxGeometry x="307" y="222" width="100" height="30" as="geometry" />
        </mxCell>
        <mxCell id="LlhfenPxQo_bVWixK-Nv-30" value="Buy a ticket" style="ellipse;whiteSpace=wrap;html=1;fillColor=#dae8fc;strokeColor=#6c8ebf;" vertex="1" parent="1">
          <mxGeometry x="-32" y="-33" width="100" height="50" as="geometry" />
        </mxCell>
        <mxCell id="LlhfenPxQo_bVWixK-Nv-31" value="Ticket Database" style="shape=partialRectangle;whiteSpace=wrap;html=1;left=0;right=0;fillColor=light-dark(#dee8de, #1f2f1e);strokeColor=light-dark(#82b366, #ededed);shadow=1;" vertex="1" parent="1">
          <mxGeometry x="-72" y="-133" width="100" height="30" as="geometry" />
        </mxCell>
        <mxCell id="LlhfenPxQo_bVWixK-Nv-32" style="edgeStyle=orthogonalEdgeStyle;rounded=0;orthogonalLoop=1;jettySize=auto;html=1;exitX=0.5;exitY=0;exitDx=0;exitDy=0;entryX=0.436;entryY=1.12;entryDx=0;entryDy=0;entryPerimeter=0;" edge="1" parent="1" source="LlhfenPxQo_bVWixK-Nv-30" target="LlhfenPxQo_bVWixK-Nv-31">
          <mxGeometry relative="1" as="geometry" />
        </mxCell>
      </root>
    </mxGraphModel>
  </diagram>
</mxfile>
